# xmcd
#
# Track frame offsets:
#	150
#	15209
#	38620
#	55983
#	74819
#	92376
#	109077
#	128524
#	144931
#	168097
#	185593
#	212088
#
# Disc length: 3093 seconds
#
# Revision: 0
# Processed by: cddbd v1.4PL0 Copyright (c) Steve Scherf et al.
# Submitted via: audiograbber 1.82.00
#
DISCID=970c130c
DTITLE=Faith Hill - Love Will Always Win
DYEAR=1999
DGENRE=Country
TTITLE0=This Kiss
TTITLE1=Love Will Always Win
TTITLE2=Me
TTITLE3=Let Me Let Go (Movie Version)
TTITLE4=Love Ain't Like That
TTITLE5=Piece Of My Heart
TTITLE6=The Secret Of Life
TTITLE7=Better Days
TTITLE8=I Love You
TTITLE9=The Hard Way
TTITLE10=Somebody Stand By Me
TTITLE11=Let Me Let Go (Bonus Track)
EXTD=\n
EXTT0=
EXTT1=
EXTT2=
EXTT3=
EXTT4=
EXTT5=
EXTT6=
EXTT7=
EXTT8=
EXTT9=
EXTT10=
EXTT11=Bonus Track
PLAYORDER=
